<svg width="2310" height="2084" viewBox="0 0 2310 2084" fill="none" xmlns="http://www.w3.org/2000/svg">
<g clip-path="url(#clip0)">
<path d="M2088.41 138.364L2059.64 167.125" stroke="#FF80BD" stroke-width="2" stroke-miterlimit="10" stroke-linecap="round"/>
<path d="M2088.41 167.125L2059.64 138.364" stroke="#FF80BD" stroke-width="2" stroke-miterlimit="10" stroke-linecap="round"/>
<path d="M1957.01 1978.28L1928.24 2007.05" stroke="#FFAF33" stroke-width="2" stroke-miterlimit="10" stroke-linecap="round"/>
<path d="M1957.01 2007.05L1928.24 1978.28" stroke="#FFAF33" stroke-width="2" stroke-miterlimit="10" stroke-linecap="round"/>
<path d="M859.155 1821.27L818.725 1843.03" stroke="#FF80BD" stroke-miterlimit="10" stroke-linecap="round" stroke-linejoin="round"/>
<path d="M849.825 1851.58L828.054 1811.94" stroke="#FF80BD" stroke-miterlimit="10" stroke-linecap="round" stroke-linejoin="round"/>
<path d="M468.066 1503.34L525.602 1517.33L485.171 1560.86L468.066 1503.34Z" stroke="#FFAF33" stroke-width="2" stroke-miterlimit="10" stroke-linecap="round" stroke-linejoin="round"/>
<path d="M1567.47 49.7488L1605.57 58.2993L1578.36 86.2829L1567.47 49.7488Z" stroke="white" stroke-miterlimit="10" stroke-linecap="round" stroke-linejoin="round"/>
<path d="M2041.58 1550.89L2009.69 1582.77L2041.58 1614.65L2073.47 1582.78L2041.58 1550.89Z" stroke="#79BEFF" stroke-width="2" stroke-miterlimit="10" stroke-linecap="round" stroke-linejoin="round"/>
<path d="M880.925 49.7486C880.925 73.0683 862.265 91.724 838.939 91.724C815.614 91.724 796.954 73.0683 796.954 49.7486C796.954 26.4289 815.614 7.77322 838.939 7.77322C862.265 7.77322 880.925 26.4289 880.925 49.7486Z" stroke="#C7ED72" stroke-width="2" stroke-miterlimit="10" stroke-linecap="round" stroke-linejoin="round"/>
<path d="M1779.73 1472.25C1786.18 1472.25 1791.4 1467.03 1791.4 1460.59C1791.4 1454.15 1786.18 1448.93 1779.73 1448.93C1773.29 1448.93 1768.07 1454.15 1768.07 1460.59C1768.07 1467.03 1773.29 1472.25 1779.73 1472.25Z" stroke="#71FF3D" stroke-miterlimit="10" stroke-linecap="round" stroke-linejoin="round"/>
<path d="M682.659 1127.12C689.1 1127.12 694.322 1121.9 694.322 1115.46C694.322 1109.02 689.1 1103.8 682.659 1103.8C676.218 1103.8 670.997 1109.02 670.997 1115.46C670.997 1121.9 676.218 1127.12 682.659 1127.12Z" stroke="#FF80BD" stroke-miterlimit="10" stroke-linecap="round" stroke-linejoin="round"/>
<path d="M2009.88 679.38C2016.32 679.38 2021.54 674.159 2021.54 667.72C2021.54 661.28 2016.32 656.06 2009.88 656.06C2003.44 656.06 1998.22 661.28 1998.22 667.72C1998.22 674.159 2003.44 679.38 2009.88 679.38Z" stroke="white" stroke-width="0.5" stroke-miterlimit="10" stroke-linecap="round" stroke-linejoin="round"/>
<path d="M2310 499.818C2271.9 499.818 2240.8 468.725 2240.8 430.636C2240.8 392.548 2271.9 361.455 2310 361.455" stroke="#79BEFF" stroke-width="0.75" stroke-miterlimit="10" stroke-linejoin="round"/>
<path d="M0.778076 2083.22C0.778076 1964.29 97.19 1867.91 216.15 1867.91C335.11 1867.91 431.522 1964.29 431.522 2083.22" stroke="white" stroke-width="0.25" stroke-miterlimit="10" stroke-linecap="round" stroke-linejoin="round"/>
<path d="M876.262 804.528L835.053 784.318L816.393 737.679C814.838 734.569 812.505 732.237 808.618 731.46H807.063L757.302 722.909L734.754 682.489L733.976 680.934C732.421 677.825 728.534 676.27 725.424 675.493L670.997 672.383L637.564 642.845C636.787 642.068 635.232 642.068 633.677 642.845C632.899 643.623 632.899 644.4 632.899 645.954L656.225 688.707C657.002 691.039 659.335 691.816 661.667 692.594H663.222L712.983 698.035L727.756 743.12L728.534 744.674C729.311 747.784 731.644 749.338 733.976 750.893C736.309 752.448 738.641 754.002 741.751 754.002H744.084H796.177L815.615 795.978L816.393 797.532C817.17 799.087 819.503 800.642 821.835 801.419L873.929 809.969C874.707 809.969 876.262 809.969 877.039 808.415C877.817 806.86 877.039 805.306 876.262 804.528Z" fill="#A9B0BA"/>
<path d="M952.458 760.221L923.69 726.796L928.355 676.27C928.355 673.161 926.8 669.274 923.69 667.719L922.135 666.942L880.926 641.29L879.371 595.428V593.874C879.371 589.987 877.039 587.655 873.929 586.101L825.723 563.558L810.172 523.137C809.395 521.583 807.84 521.583 807.062 521.583C806.285 522.36 805.507 523.137 805.507 523.915L807.062 572.109C807.062 574.441 808.617 575.995 810.172 577.55L811.727 578.327L854.491 600.87L846.716 648.286V649.841C845.938 652.95 846.716 655.282 849.048 657.614C849.826 659.946 852.158 662.278 855.268 663.055L856.823 663.833L904.252 682.488L901.919 730.682V732.237C901.919 734.569 902.697 736.124 905.029 737.678L948.57 764.107C949.348 764.885 950.903 764.885 951.68 764.107C953.235 763.33 953.235 761.775 952.458 760.221Z" fill="#A9B0BA"/>
<path d="M855.269 876.819L807.84 878.374L767.409 846.504C765.077 844.172 761.189 843.394 757.302 844.949L755.747 845.726L706.763 861.273L665.555 836.398L664 835.621C660.89 834.067 657.002 833.289 653.892 834.844L603.353 856.609L558.258 845.726C556.703 845.726 555.147 846.504 555.147 847.281C555.147 848.058 555.147 849.613 555.925 849.613L598.688 876.042C601.021 877.597 603.353 877.597 605.686 876.819L607.241 876.042L654.669 858.164L691.213 890.811L692.768 892.366C695.1 894.698 698.21 895.475 700.543 895.475C703.653 896.252 706.763 895.475 709.096 894.698L710.651 893.92L757.302 870.601L796.177 897.807L797.732 898.584C799.287 900.139 801.62 900.139 804.73 899.362L855.269 883.038C856.046 883.038 856.824 881.483 856.824 880.706C858.379 878.374 856.824 876.819 855.269 876.819Z" fill="#A9B0BA"/>
<path d="M878.594 802.196L841.274 776.544L827.278 726.796C826.501 723.686 823.391 720.577 820.281 719.8L818.726 719.022L772.852 704.253L754.192 660.723L753.414 659.169C751.859 656.059 748.749 653.727 745.639 652.95L695.101 642.845L666.333 607.865C665.555 607.088 664 606.311 663.223 607.865C662.445 608.643 662.445 609.42 662.445 610.975L681.105 657.614C681.883 659.946 684.216 661.501 685.771 661.501H687.326L733.977 673.16L744.084 721.354L744.862 722.909C745.639 726.018 747.194 728.35 749.527 729.905C751.082 732.237 754.192 733.792 757.302 733.792H759.635L808.618 740.01L824.168 785.095L824.946 786.649C825.723 788.981 827.278 790.536 829.611 791.313L877.817 806.082C878.595 806.082 880.15 806.082 880.927 805.305C880.15 804.528 879.372 802.973 878.594 802.196Z" fill="url(#paint0_linear)"/>
<path d="M953.235 760.998L929.132 722.909L936.13 671.606C936.907 668.497 935.352 664.61 933.02 662.278L932.242 661.501L896.477 629.631L898.032 581.437V579.882C898.032 575.995 896.477 572.886 893.366 570.554L850.603 541.016L838.94 497.486C838.94 495.931 837.385 495.154 835.83 495.931C835.053 495.931 834.275 497.486 834.275 498.263L832.72 548.789C832.72 551.121 833.498 553.453 835.053 555.008L836.608 555.785L873.929 585.323L863.821 633.517L863.043 635.072C862.266 638.181 863.043 641.29 864.598 643.622C865.376 645.954 866.931 649.064 870.041 650.618L871.596 651.396L913.582 677.047L908.917 724.464V726.018C908.917 728.35 909.694 730.682 911.249 732.237L949.348 764.885C950.125 765.662 951.68 765.662 952.458 764.885C953.235 763.33 954.013 761.775 953.235 760.998Z" fill="url(#paint1_linear)"/>
<path d="M854.491 872.155L809.395 869.045L772.074 833.288C769.741 830.956 765.854 830.179 761.966 830.957H760.411L713.76 841.839L675.662 813.078L674.884 812.301C671.774 809.969 667.887 809.969 664.777 810.746L615.793 827.847L573.807 812.301C572.252 811.523 571.475 812.301 570.697 813.855C569.92 814.633 570.697 816.187 571.475 816.965L611.128 847.28C612.683 848.835 615.016 848.835 617.348 848.835L618.903 848.058L664.777 834.843L698.21 871.377L699.765 872.932C702.097 875.264 704.43 876.041 707.54 876.819C709.873 877.596 712.983 877.596 716.093 876.819L717.648 876.041L761.966 855.054L797.732 886.146L799.287 886.924C800.842 888.478 803.175 889.256 805.507 888.478L854.491 876.819C855.268 876.819 856.046 876.041 856.046 874.487C856.823 873.709 855.268 872.932 854.491 872.155Z" fill="url(#paint2_linear)"/>
<path d="M1964.01 1225.06L2009.1 1217.29L2040.2 1177.64C2042.53 1175.31 2045.64 1173.76 2049.53 1173.76H2051.09L2100.85 1179.2L2134.28 1146.55L2135.06 1145.77C2137.39 1143.44 2141.28 1142.66 2145.17 1143.44L2198.82 1155.1L2238.47 1134.89C2240.02 1134.11 2241.58 1134.89 2242.36 1135.67C2243.13 1136.45 2243.13 1138 2242.36 1138.78L2208.15 1173.76C2206.59 1175.31 2204.26 1176.09 2201.93 1175.31H2200.37L2151.39 1166.76L2124.95 1206.4L2124.17 1207.96C2122.62 1210.29 2120.29 1211.85 2117.18 1212.62C2114.84 1214.18 2111.73 1214.18 2108.62 1213.4L2106.29 1212.62L2056.53 1198.63L2026.21 1233.61L2025.43 1234.39C2023.87 1235.94 2021.54 1236.72 2019.21 1236.72L1967.12 1230.5C1966.34 1230.5 1964.78 1229.72 1964.78 1228.17C1961.67 1226.61 1962.45 1225.06 1964.01 1225.06Z" fill="#A9B0BA"/>
<path d="M1902.58 1161.32L1939.13 1137.22L1948.46 1087.47C1949.23 1084.36 1951.57 1081.26 1954.68 1080.48H1956.23L2002.88 1067.26L2017.65 1022.96L2018.43 1021.4C2019.21 1018.29 2022.32 1015.96 2026.21 1015.18L2079.08 1006.63L2105.51 972.43C2106.29 971.653 2107.85 971.653 2109.4 972.43C2110.18 973.207 2110.96 973.985 2110.18 975.539L2095.41 1021.4C2094.63 1023.73 2093.07 1025.29 2090.74 1025.29H2089.19L2041.76 1035.39L2036.31 1083.59V1085.14C2036.31 1088.25 2034.76 1090.58 2032.43 1092.14C2030.87 1094.47 2028.54 1096.02 2025.43 1096.02H2023.1L1972.56 1100.69L1961.67 1145.77V1147.33C1960.9 1149.66 1959.34 1151.21 1957.01 1151.99L1908.02 1165.21C1907.25 1165.21 1905.69 1165.21 1904.91 1164.43C1901.8 1163.65 1901.8 1162.1 1902.58 1161.32Z" fill="#A9B0BA"/>
<path d="M1964.01 1300.46L2009.1 1315.23L2056.53 1295.8C2059.64 1294.24 2063.53 1295.02 2066.64 1297.35L2068.19 1298.13L2110.96 1326.11L2157.61 1313.67H2159.16C2163.05 1312.9 2166.94 1313.67 2169.27 1316.01L2212.03 1350.99L2257.91 1352.54C2259.46 1352.54 2260.24 1354.09 2260.24 1354.87C2260.24 1355.65 2259.46 1357.2 2258.69 1357.2L2210.48 1370.42C2208.15 1371.2 2205.81 1370.42 2204.26 1368.86L2202.7 1368.09L2162.27 1337.77L2118.73 1358.76L2117.18 1359.54C2114.84 1361.09 2111.73 1361.09 2108.62 1360.31C2105.51 1360.31 2102.4 1358.76 2100.07 1356.43L2098.52 1354.87L2060.42 1319.12L2015.32 1334.66L2013.77 1335.44C2011.44 1336.22 2009.1 1335.44 2006.77 1334.66L1962.45 1305.12C1961.67 1304.35 1960.9 1303.57 1961.67 1302.01C1960.9 1300.46 1962.45 1299.68 1964.01 1300.46Z" fill="#A9B0BA"/>
<path d="M1962.45 1222.73L2005.21 1208.74L2032.43 1164.43C2033.98 1161.32 2037.87 1159.76 2040.98 1159.76H2042.54L2090.74 1158.21L2121.06 1120.9L2121.84 1120.12C2124.17 1117.01 2128.06 1116.23 2131.17 1116.23L2182.49 1120.9L2219.81 1095.25C2220.59 1094.47 2222.14 1094.47 2222.92 1096.02C2223.7 1096.8 2223.7 1098.36 2222.92 1099.13L2191.82 1138.78C2190.26 1140.33 2187.93 1141.89 2185.6 1141.89H2184.04L2136.61 1140.33L2113.29 1183.86L2112.51 1185.42C2110.96 1187.75 2108.62 1190.08 2106.29 1190.86C2103.96 1192.41 2100.85 1193.19 2097.74 1192.41H2095.41L2047.2 1184.64L2019.99 1223.5L2019.21 1225.06C2017.65 1226.61 2016.1 1228.17 2013.77 1228.17L1963.23 1228.95C1962.45 1228.95 1960.9 1228.17 1960.9 1227.39C1960.12 1224.28 1960.9 1222.73 1962.45 1222.73Z" fill="url(#paint3_linear)"/>
<path d="M1901.8 1162.1L1935.24 1131.78L1942.24 1080.48C1943.01 1077.37 1944.57 1074.26 1948.46 1072.7L1950.01 1071.93L1993.55 1050.94L2005.99 1004.3V1002.75C2006.77 998.859 2009.88 996.527 2012.99 994.972L2061.97 977.871L2085.3 939.005C2086.08 938.228 2087.63 937.45 2088.41 938.227C2089.19 939.005 2089.96 939.782 2089.19 940.559L2076.75 989.531C2075.97 991.863 2074.41 993.417 2072.86 994.195L2071.3 994.972L2026.98 1012.85L2023.1 1061.82V1064.15C2023.1 1067.26 2021.54 1069.59 2019.21 1071.93C2017.65 1074.26 2015.32 1076.59 2012.21 1077.37L2010.66 1078.15L1963.23 1091.36L1953.9 1138V1139.55C1953.12 1141.89 1952.34 1143.44 1950.01 1145L1904.91 1165.98C1904.14 1166.76 1902.58 1165.98 1901.8 1165.21C1901.03 1164.43 1901.03 1162.87 1901.8 1162.1Z" fill="url(#paint4_linear)"/>
<path d="M1966.34 1296.57L2010.66 1305.9L2056.53 1281.8C2059.64 1280.25 2063.53 1280.25 2066.64 1281.8L2068.19 1282.58L2110.18 1305.9L2155.27 1288.8L2156.83 1288.02C2159.94 1286.47 2163.83 1287.25 2166.94 1289.58L2208.92 1319.89L2254.02 1316.78C2255.57 1316.78 2256.35 1317.56 2256.35 1319.12C2256.35 1319.89 2255.57 1321.45 2254.8 1321.45L2208.15 1340.1C2205.81 1340.88 2203.48 1340.88 2201.93 1339.33L2200.37 1338.55L2159.94 1312.9L2117.95 1338.55L2116.4 1339.33C2114.07 1340.88 2110.96 1341.66 2107.85 1340.88C2104.74 1340.88 2102.4 1340.1 2100.07 1338.55L2098.52 1336.99L2060.42 1305.9L2016.88 1326.11L2015.32 1326.89C2012.99 1327.67 2010.66 1327.67 2009.1 1326.89L1965.56 1302.01C1964.78 1301.24 1964.01 1300.46 1964.01 1299.68C1964.01 1296.57 1964.78 1295.8 1966.34 1296.57Z" fill="url(#paint5_linear)"/>
</g>
<defs>
<linearGradient id="paint0_linear" x1="649.849" y1="688.191" x2="891.907" y2="726.354" gradientUnits="userSpaceOnUse">
<stop stop-color="#3292E1"/>
<stop offset="1" stop-color="#39DEFF"/>
</linearGradient>
<linearGradient id="paint1_linear" x1="815.078" y1="617.759" x2="972.53" y2="642.583" gradientUnits="userSpaceOnUse">
<stop stop-color="#3292E1"/>
<stop offset="1" stop-color="#39DEFF"/>
</linearGradient>
<linearGradient id="paint2_linear" x1="568.374" y1="824.091" x2="857.369" y2="869.655" gradientUnits="userSpaceOnUse">
<stop stop-color="#3292E1"/>
<stop offset="1" stop-color="#39DEFF"/>
</linearGradient>
<linearGradient id="paint3_linear" x1="1960.64" y1="1160.47" x2="2223.45" y2="1160.47" gradientUnits="userSpaceOnUse">
<stop stop-color="#FF2652"/>
<stop offset="1" stop-color="#B81C3C"/>
</linearGradient>
<linearGradient id="paint4_linear" x1="1901.11" y1="1052.44" x2="2089.26" y2="1052.44" gradientUnits="userSpaceOnUse">
<stop stop-color="#FF2652"/>
<stop offset="1" stop-color="#B81C3C"/>
</linearGradient>
<linearGradient id="paint5_linear" x1="1963.36" y1="1310.38" x2="2255.71" y2="1310.38" gradientUnits="userSpaceOnUse">
<stop stop-color="#FF2652"/>
<stop offset="1" stop-color="#B81C3C"/>
</linearGradient>
<clipPath id="clip0">
<rect width="2310" height="2084" fill="white"/>
</clipPath>
</defs>
</svg>
