<svg width="1078" height="1312" viewBox="0 0 1078 1312" fill="none" xmlns="http://www.w3.org/2000/svg">
<path d="M1078 907.865H432.811V1311.42H1078V907.865Z" fill="url(#paint0_linear)"/>
<path d="M432.811 1312L54.101 1088.06V773.153L432.811 996.521V1312Z" fill="url(#paint1_linear)"/>
<path d="M377.559 1234.86L98.4191 1070.21V837.631L377.559 1002.85V1234.86Z" fill="url(#paint2_linear)"/>
<path d="M156.549 907.865C151.369 904.986 147.34 907.289 147.34 913.046L146.765 1056.39C146.765 1062.15 150.793 1069.06 155.398 1071.94C160.578 1074.82 164.607 1072.51 164.607 1066.76L165.182 923.409C165.182 917.652 161.153 910.743 156.549 907.865Z" fill="url(#paint3_linear)"/>
<path d="M194.535 929.741C189.355 926.863 185.327 929.166 185.327 934.923L184.751 1078.27C184.751 1084.03 188.78 1090.93 193.384 1093.81C198.564 1096.69 202.593 1094.39 202.593 1088.63L203.169 945.285C203.744 939.528 199.715 932.62 194.535 929.741Z" fill="url(#paint4_linear)"/>
<path d="M233.097 952.193C227.917 949.314 223.888 951.617 223.888 957.374L223.312 1100.72C223.312 1106.48 227.341 1113.39 231.946 1116.26C237.126 1119.14 241.154 1116.84 241.154 1111.08L241.73 967.161C241.73 961.404 237.701 954.496 233.097 952.193Z" fill="url(#paint5_linear)"/>
<path d="M300.435 1097.27L270.507 1080C264.751 1076.54 260.147 1079.42 260.147 1085.75V1120.29C260.147 1126.63 264.751 1134.69 270.507 1138.14L300.435 1155.41C306.191 1158.87 310.795 1155.99 310.795 1149.65V1115.11C310.795 1108.21 306.191 1100.15 300.435 1097.27Z" fill="#2B333E"/>
<path d="M304.464 1068.48L266.478 1046.61C263.025 1044.88 260.147 1046.03 260.147 1050.06C260.147 1054.09 263.025 1058.7 266.478 1061L304.464 1082.88C307.918 1084.6 310.795 1083.45 310.795 1079.42C310.795 1074.82 307.918 1070.21 304.464 1068.48Z" fill="#2B333E"/>
<path d="M301.011 991.34L271.083 974.07C265.328 970.615 260.723 973.494 260.723 979.827V1013.79C260.723 1020.12 265.328 1028.18 271.083 1031.64L301.011 1048.91C306.767 1052.36 311.371 1049.49 311.371 1043.15V1009.19C310.796 1002.28 306.767 994.219 301.011 991.34Z" fill="#2B333E"/>
<path d="M432.811 1312L54.101 856.629V773.153L432.811 996.521V1312Z" fill="#DAE1ED"/>
<path d="M475.978 887.716L97.2677 664.348L96.6921 601.597L475.978 825.541V887.716Z" fill="url(#paint6_linear)"/>
<path d="M379.286 944.134L0 720.19L97.2675 664.348L475.978 887.716L379.286 944.134Z" fill="url(#paint7_linear)"/>
<path d="M379.286 1027.61L0 803.665V720.189L379.286 944.133V1027.61Z" fill="url(#paint8_linear)"/>
<path d="M475.978 825.541L96.6921 601.597L191.657 265.969L570.368 489.913L475.978 825.541Z" fill="url(#paint9_linear)"/>
<path d="M124.894 590.659L206.046 302.238L542.741 500.851L461.589 789.272L124.894 590.659Z" fill="url(#paint10_linear)"/>
<path d="M265.328 473.794L258.997 470.34L252.666 466.31L249.788 474.945L243.457 470.916L241.155 479.551L234.248 475.521L237.126 467.461L230.219 463.432L233.097 455.372L226.766 451.342L219.859 447.888L217.557 455.948L211.226 452.493L208.348 460.553L206.046 469.188L203.168 477.248L210.075 480.702L207.197 489.338L213.528 492.792L211.226 501.427L217.557 504.881L215.255 513.517L221.586 517.547L219.284 525.606L225.615 529.06L227.917 521.001L234.824 525.031L237.126 516.395L243.457 519.849L246.334 511.79L252.666 515.819L255.543 507.184L261.874 511.214L264.176 502.579L267.054 494.519L269.356 485.884L263.025 482.429L265.328 473.794Z" fill="#EF244D"/>
<path d="M267.054 494.519L264.176 502.578L261.874 511.214L268.205 514.668L270.507 506.608L273.385 497.973L275.687 489.913L269.356 485.883L267.054 494.519Z" fill="black"/>
<path d="M252.665 515.82L258.996 519.274L261.874 511.214L255.543 507.184L252.665 515.82Z" fill="black"/>
<path d="M269.356 485.883L272.234 477.824L265.327 473.794L263.025 482.429L269.356 485.883Z" fill="black"/>
<path d="M243.457 519.849L250.363 523.879L252.665 515.819L246.334 511.79L243.457 519.849Z" fill="black"/>
<path d="M265.327 473.794L268.205 465.735L261.298 461.705L254.967 458.251L252.665 466.31L258.996 470.34L265.327 473.794Z" fill="black"/>
<path d="M234.823 525.031L241.155 528.485L243.457 519.849L237.126 516.395L234.823 525.031Z" fill="black"/>
<path d="M225.614 529.06L231.945 533.09L234.823 525.03L227.916 521L225.614 529.06Z" fill="black"/>
<path d="M252.665 466.31L245.759 462.856L243.457 470.915L249.788 474.945L252.665 466.31Z" fill="black"/>
<path d="M216.405 533.666L223.312 537.696L225.614 529.06L219.283 525.606L216.405 533.666Z" fill="black"/>
<path d="M241.154 479.551L243.456 470.916L237.125 467.462L234.247 475.521L241.154 479.551Z" fill="black"/>
<path d="M215.254 513.517L212.376 521.577L219.283 525.606L221.585 517.547L215.254 513.517Z" fill="black"/>
<path d="M237.125 467.462L239.428 458.826L233.097 455.372L230.219 463.432L237.125 467.462Z" fill="black"/>
<path d="M233.096 455.372L235.399 446.737L229.068 443.282L222.737 439.253L219.859 447.888L226.765 451.342L233.096 455.372Z" fill="black"/>
<path d="M203.168 477.248L200.865 485.308L207.196 489.338L210.074 480.702L203.168 477.248Z" fill="black"/>
<path d="M219.859 447.888L213.528 443.858L211.226 452.494L217.557 455.948L219.859 447.888Z" fill="black"/>
<path d="M208.348 460.553L211.226 452.493L204.319 448.464L202.017 457.099L199.139 465.159L196.837 473.218L203.168 477.248L206.046 469.188L208.348 460.553Z" fill="black"/>
<path d="M207.196 489.337L204.894 497.397L211.225 501.427L213.527 492.792L207.196 489.337Z" fill="black"/>
<path d="M211.226 501.427L208.924 509.487L215.255 513.517L217.557 504.882L211.226 501.427Z" fill="black"/>
<path d="M356.263 526.182L349.357 522.728L343.025 518.698L340.723 527.333L333.817 523.303L331.515 531.939L325.184 527.909L327.486 519.849L321.155 515.819L323.457 507.76L317.126 503.73L310.795 500.276L307.917 508.335L301.586 504.306L299.284 512.941L296.406 521.001L294.104 529.636L300.435 533.09L298.133 541.726L304.464 545.18L301.586 553.815L308.493 557.269L305.615 565.905L312.522 569.359L309.644 577.994L315.975 581.448L318.853 573.389L325.184 576.843L328.061 568.783L334.392 572.237L336.694 564.178L343.025 567.632L345.903 559.572L352.234 563.026L355.112 554.966L357.414 546.907L360.292 538.271L353.385 534.817L356.263 526.182Z" fill="#EF244D"/>
<path d="M357.415 546.907L355.112 554.966L352.235 563.026L358.566 567.056L361.443 558.42L363.746 550.361L366.623 542.301L360.292 538.271L357.415 546.907Z" fill="black"/>
<path d="M343.026 567.632L349.932 571.662L352.234 563.026L345.903 559.572L343.026 567.632Z" fill="black"/>
<path d="M360.292 538.271L362.594 530.212L356.263 526.182L353.385 534.817L360.292 538.271Z" fill="black"/>
<path d="M334.392 572.237L340.723 576.267L343.026 567.631L336.695 564.177L334.392 572.237Z" fill="black"/>
<path d="M356.263 526.182L358.565 518.122L352.234 514.093L345.903 510.638L343.026 518.698L349.357 522.728L356.263 526.182Z" fill="black"/>
<path d="M325.184 576.843L331.515 580.873L334.393 572.237L328.062 568.783L325.184 576.843Z" fill="black"/>
<path d="M315.975 581.448L322.882 585.478L325.184 576.842L318.853 573.388L315.975 581.448Z" fill="black"/>
<path d="M343.026 518.698L336.695 515.244L333.817 523.303L340.724 527.333L343.026 518.698Z" fill="black"/>
<path d="M307.342 586.054L313.673 590.084L315.975 581.448L309.644 577.994L307.342 586.054Z" fill="black"/>
<path d="M331.515 531.939L333.817 523.303L327.486 519.849L325.184 527.909L331.515 531.939Z" fill="black"/>
<path d="M305.615 565.905L303.313 573.964L309.644 577.994L312.522 569.359L305.615 565.905Z" fill="black"/>
<path d="M327.485 519.85L330.363 511.214L323.457 507.76L321.154 515.82L327.485 519.85Z" fill="black"/>
<path d="M301.587 553.815L299.285 561.875L305.616 565.905L308.493 557.269L301.587 553.815Z" fill="black"/>
<path d="M323.458 507.76L326.335 499.124L319.429 495.095L313.098 491.64L310.796 500.276L317.127 503.73L323.458 507.76Z" fill="black"/>
<path d="M298.133 541.725L295.255 549.785L301.586 553.815L304.464 545.179L298.133 541.725Z" fill="black"/>
<path d="M294.104 529.636L291.226 537.696L298.133 541.725L300.435 533.09L294.104 529.636Z" fill="black"/>
<path d="M310.795 500.276L303.888 496.246L301.586 504.306L307.917 508.336L310.795 500.276Z" fill="black"/>
<path d="M299.284 512.941L301.586 504.305L295.255 500.851L292.378 508.911L290.075 517.546L287.198 525.606L294.104 529.636L296.406 521.001L299.284 512.941Z" fill="black"/>
<path d="M444.323 586.629L446.625 578.57L440.294 574.54L433.963 571.086L431.085 579.145L424.754 575.691L421.876 583.751L415.545 580.297L418.423 571.661L411.516 568.207L414.394 559.572L407.488 556.118L401.157 552.088L398.854 560.723L391.948 556.693L389.646 565.329L387.343 573.388L384.466 582.024L390.797 585.478L388.495 594.113L394.826 597.568L392.523 606.203L398.854 609.657L396.552 618.292L402.883 621.747L400.005 630.382L406.912 633.836L409.214 625.776L415.545 629.231L418.423 621.171L424.754 624.625L427.632 616.565L433.963 620.019L436.265 611.96L443.172 615.414L445.474 607.354L447.776 598.719L450.654 590.659L444.323 586.629Z" fill="#EF244D"/>
<path d="M384.465 582.024L382.163 590.083L388.494 594.113L390.796 585.478L384.465 582.024Z" fill="black"/>
<path d="M389.645 565.329L391.947 556.693L385.616 553.239L383.314 561.299L380.436 569.934L378.134 577.994L384.465 582.024L387.343 573.388L389.645 565.329Z" fill="black"/>
<path d="M450.654 590.659L447.776 598.719L445.474 607.354L443.171 615.414L449.502 619.443L451.805 610.808L454.682 602.748L456.985 594.113L450.654 590.659Z" fill="black"/>
<path d="M433.962 620.02L440.293 624.049L443.171 615.414L436.264 611.96L433.962 620.02Z" fill="black"/>
<path d="M450.653 590.659L452.955 582.024L446.624 578.57L444.322 586.629L450.653 590.659Z" fill="black"/>
<path d="M424.754 624.625L431.085 628.655L433.963 620.019L427.632 616.565L424.754 624.625Z" fill="black"/>
<path d="M446.624 578.569L449.502 569.934L442.595 566.48L436.264 562.45L433.962 571.085L440.293 574.539L446.624 578.569Z" fill="black"/>
<path d="M415.545 629.231L422.451 633.26L424.754 624.625L418.423 621.171L415.545 629.231Z" fill="black"/>
<path d="M406.912 633.836L413.243 637.866L415.545 629.23L409.214 625.776L406.912 633.836Z" fill="black"/>
<path d="M433.963 571.085L427.056 567.056L424.754 575.691L431.085 579.145L433.963 571.085Z" fill="black"/>
<path d="M397.702 638.442L404.033 642.471L406.911 633.836L400.005 630.382L397.702 638.442Z" fill="black"/>
<path d="M421.876 583.751L424.754 575.691L418.423 571.661L415.545 580.297L421.876 583.751Z" fill="black"/>
<path d="M396.552 618.292L393.674 626.352L400.005 630.382L402.883 621.747L396.552 618.292Z" fill="black"/>
<path d="M418.423 571.661L420.725 563.601L414.394 559.572L411.516 568.207L418.423 571.661Z" fill="black"/>
<path d="M392.523 606.203L389.645 614.263L396.552 618.292L398.854 609.657L392.523 606.203Z" fill="black"/>
<path d="M414.394 559.572L416.696 551.512L410.365 547.482L404.034 544.028L401.156 552.088L407.487 556.118L414.394 559.572Z" fill="black"/>
<path d="M388.494 594.113L386.191 602.173L392.522 606.203L394.825 597.567L388.494 594.113Z" fill="black"/>
<path d="M401.156 552.088L394.825 548.634L391.947 556.693L398.853 560.723L401.156 552.088Z" fill="black"/>
<path opacity="0.2" d="M363.746 760.488L96.6921 601.597L157.7 386.864L363.746 760.488Z" fill="white"/>
<path d="M174.966 325.841L191.657 265.969L570.367 489.913L519.143 671.831L174.966 325.841Z" fill="#DAE1ED"/>
<path d="M577.85 318.933L198.564 94.989L363.746 0L743.032 223.944L577.85 318.933Z" fill="url(#paint11_linear)"/>
<path d="M497.848 384.562L119.138 161.193L198.564 94.989L577.849 318.933L497.848 384.562Z" fill="url(#paint12_linear)"/>
<path d="M743.031 223.944L577.849 318.933L497.848 384.562V492.792L570.367 489.913L475.977 825.541V887.716L379.285 944.134V1027.61L432.811 996.521V1312L743.031 1133.54V223.944Z" fill="url(#paint13_linear)"/>
<path d="M497.848 492.792L119.138 268.848V161.193L497.848 384.562V492.792Z" fill="url(#paint14_linear)"/>
<path d="M650.369 485.883V443.282L665.333 434.647V477.248L675.117 471.491V428.89L669.937 431.768V423.133L675.117 420.254V380.532L665.333 386.289V380.532L640.584 394.924V491.064L650.369 485.883ZM664.757 392.621V423.709L649.793 432.344V401.257L664.757 392.621Z" fill="white"/>
<path d="M669.937 521.576L640.584 538.847V634.987L670.513 617.717V606.203L650.369 617.717V583.751L667.635 573.964V562.45L650.369 572.813V544.604L669.937 533.09V521.576Z" fill="white"/>
<path d="M649.793 773.153L659.577 767.396V682.77L673.966 674.134V662.62L634.829 685.648V696.586L649.793 687.951V773.153Z" fill="white"/>
<path d="M665.909 810.573L641.16 824.965V921.106L650.945 915.349V872.748L665.909 864.112V906.713L675.693 900.956V858.355L670.513 861.234V852.598L675.693 849.72V809.997L665.909 815.754V810.573ZM665.909 853.174L650.945 861.809V830.722L665.909 822.087V853.174Z" fill="white"/>
<path d="M675.693 954.495L665.909 960.252V954.495L650.945 963.131V968.888L641.16 974.645V1059.27L650.945 1053.51V1059.27L665.909 1050.64V1044.88L675.693 1039.12V954.495ZM650.945 1047.76V974.069L665.909 965.434V1039.12L650.945 1047.76Z" fill="white"/>
<path d="M215.83 781.213C210.075 777.759 200.866 777.759 195.686 781.213C189.931 784.667 189.931 789.848 195.686 792.727C201.441 796.181 210.65 796.181 215.83 792.727C221.586 789.272 221.586 784.091 215.83 781.213Z" fill="url(#paint15_linear)"/>
<path d="M164.606 747.247L149.642 738.612L164.606 729.976C168.06 727.674 168.06 724.795 164.606 722.492L151.369 715.008C147.915 712.706 142.16 713.281 138.707 715.008L123.742 723.644L108.778 715.008C105.325 712.706 99.5694 712.706 96.1161 715.008L82.8785 722.492C79.4253 724.22 79.4253 727.674 82.8785 729.976L97.8428 738.612L82.8785 747.247C79.4253 749.55 79.4253 752.428 82.8785 754.731L96.1161 762.215C99.5694 763.942 105.325 763.942 108.778 762.215L123.742 753.58L138.707 762.215C142.16 764.518 147.915 764.518 151.369 762.215L164.606 754.731C168.06 752.428 168.06 749.55 164.606 747.247Z" fill="url(#paint16_linear)"/>
<path d="M263.601 808.271C257.845 804.817 248.637 804.817 243.457 808.271C237.701 811.725 237.701 816.906 243.457 819.785C249.212 823.239 258.421 823.239 263.601 819.785C269.356 816.906 269.356 811.725 263.601 808.271Z" fill="url(#paint17_linear)"/>
<path d="M378.135 870.445L363.17 861.81L378.135 853.174C381.588 851.447 381.588 847.993 378.135 845.69L364.897 838.206C361.444 835.904 355.688 836.479 352.235 838.206L337.271 846.842L322.307 838.206C318.853 835.904 313.098 835.904 309.645 838.206L296.407 845.69C292.954 847.417 292.954 850.872 296.407 853.174L311.371 861.81L296.407 870.445C292.954 872.748 292.954 875.626 296.407 877.929L309.645 885.413C313.098 887.716 318.853 887.716 322.307 885.413L337.271 876.778L352.235 885.413C355.688 887.716 361.444 887.716 364.897 885.413L378.135 877.929C381.588 876.202 381.588 872.748 378.135 870.445Z" fill="url(#paint18_linear)"/>
<path d="M263.025 246.396L343.026 180.767L508.209 85.2023L485.762 71.9614L320.58 166.95L240.579 233.155L263.025 246.396Z" fill="url(#paint19_linear)"/>
<path d="M303.314 269.999L383.315 203.795L548.497 108.806L526.05 94.989L360.868 190.554L280.867 256.183L303.314 269.999Z" fill="url(#paint20_linear)"/>
<path d="M343.602 293.027L423.603 226.822L588.785 131.833L566.339 118.592L401.157 213.581L321.156 279.786L343.602 293.027Z" fill="url(#paint21_linear)"/>
<defs>
<linearGradient id="paint0_linear" x1="540.767" y1="1109.91" x2="1100.5" y2="1109.91" gradientUnits="userSpaceOnUse">
<stop stop-color="#98ABD9"/>
<stop offset="1" stop-color="white" stop-opacity="0"/>
</linearGradient>
<linearGradient id="paint1_linear" x1="243.354" y1="1250.42" x2="243.354" y2="954.81" gradientUnits="userSpaceOnUse">
<stop stop-color="#526075"/>
<stop offset="1" stop-color="#3B4554"/>
</linearGradient>
<linearGradient id="paint2_linear" x1="238.083" y1="1189.61" x2="238.083" y2="971.878" gradientUnits="userSpaceOnUse">
<stop stop-color="#ABBFDE"/>
<stop offset="1" stop-color="#C5D7F0"/>
</linearGradient>
<linearGradient id="paint3_linear" x1="156.145" y1="1068.76" x2="156.145" y2="897.397" gradientUnits="userSpaceOnUse">
<stop stop-color="#39DEFF"/>
<stop offset="1" stop-color="#3292E1"/>
</linearGradient>
<linearGradient id="paint4_linear" x1="194.377" y1="1086.03" x2="194.377" y2="947.835" gradientUnits="userSpaceOnUse">
<stop stop-color="#FFCA39"/>
<stop offset="1" stop-color="#FF8539"/>
</linearGradient>
<linearGradient id="paint5_linear" x1="232.616" y1="1115.54" x2="232.616" y2="975.843" gradientUnits="userSpaceOnUse">
<stop stop-color="#FF2652"/>
<stop offset="1" stop-color="#B81C3C"/>
</linearGradient>
<linearGradient id="paint6_linear" x1="26.1623" y1="621.263" x2="438.821" y2="816.943" gradientUnits="userSpaceOnUse">
<stop stop-color="#526075"/>
<stop offset="1" stop-color="#3B4554"/>
</linearGradient>
<linearGradient id="paint7_linear" x1="0" y1="804.015" x2="476.164" y2="804.015" gradientUnits="userSpaceOnUse">
<stop stop-color="#CAD5E4"/>
<stop offset="1" stop-color="#E7F0FC"/>
</linearGradient>
<linearGradient id="paint8_linear" x1="4.85474" y1="769.72" x2="332.967" y2="954.704" gradientUnits="userSpaceOnUse">
<stop stop-color="#ABBFDE"/>
<stop offset="1" stop-color="#C5D7F0"/>
</linearGradient>
<linearGradient id="paint9_linear" x1="251.991" y1="783.729" x2="387.053" y2="390.919" gradientUnits="userSpaceOnUse">
<stop stop-color="#526075"/>
<stop offset="1" stop-color="#3B4554"/>
</linearGradient>
<linearGradient id="paint10_linear" x1="125.041" y1="545.705" x2="542.532" y2="545.705" gradientUnits="userSpaceOnUse">
<stop stop-color="#39DEFF"/>
<stop offset="1" stop-color="#3292E1"/>
</linearGradient>
<linearGradient id="paint11_linear" x1="198.845" y1="159.461" x2="742.816" y2="159.461" gradientUnits="userSpaceOnUse">
<stop stop-color="#FF2652"/>
<stop offset="1" stop-color="#B81C3C"/>
</linearGradient>
<linearGradient id="paint12_linear" x1="125.379" y1="143.247" x2="548.616" y2="326.793" gradientUnits="userSpaceOnUse">
<stop stop-color="#FF2652"/>
<stop offset="1" stop-color="#B81C3C"/>
</linearGradient>
<linearGradient id="paint13_linear" x1="617.538" y1="1122.58" x2="545.597" y2="491.25" gradientUnits="userSpaceOnUse">
<stop stop-color="#B81C3C"/>
<stop offset="1" stop-color="#82142A"/>
</linearGradient>
<linearGradient id="paint14_linear" x1="118.999" y1="326.941" x2="498.062" y2="326.941" gradientUnits="userSpaceOnUse">
<stop stop-color="#FF2652"/>
<stop offset="1" stop-color="#B81C3C"/>
</linearGradient>
<linearGradient id="paint15_linear" x1="198.315" y1="781.346" x2="276.03" y2="837.937" gradientUnits="userSpaceOnUse">
<stop stop-color="#526075"/>
<stop offset="1" stop-color="#3B4554"/>
</linearGradient>
<linearGradient id="paint16_linear" x1="109.403" y1="695.239" x2="153.548" y2="830.513" gradientUnits="userSpaceOnUse">
<stop stop-color="#39DEFF"/>
<stop offset="1" stop-color="#3292E1"/>
</linearGradient>
<linearGradient id="paint17_linear" x1="201.729" y1="776.663" x2="279.44" y2="833.252" gradientUnits="userSpaceOnUse">
<stop stop-color="#526075"/>
<stop offset="1" stop-color="#3B4554"/>
</linearGradient>
<linearGradient id="paint18_linear" x1="328.422" y1="830.239" x2="355.29" y2="927.146" gradientUnits="userSpaceOnUse">
<stop stop-color="#FF2652"/>
<stop offset="1" stop-color="#B81C3C"/>
</linearGradient>
<linearGradient id="paint19_linear" x1="374.409" y1="237.364" x2="374.409" y2="92.1762" gradientUnits="userSpaceOnUse">
<stop stop-color="#FFCA39"/>
<stop offset="1" stop-color="#FF8539"/>
</linearGradient>
<linearGradient id="paint20_linear" x1="414.698" y1="260.616" x2="414.698" y2="115.428" gradientUnits="userSpaceOnUse">
<stop stop-color="#FFCA39"/>
<stop offset="1" stop-color="#FF8539"/>
</linearGradient>
<linearGradient id="paint21_linear" x1="454.986" y1="283.869" x2="454.986" y2="138.681" gradientUnits="userSpaceOnUse">
<stop stop-color="#FFCA39"/>
<stop offset="1" stop-color="#FF8539"/>
</linearGradient>
</defs>
</svg>
