<?xml version="1.0"?>
<svg xmlns="http://www.w3.org/2000/svg" xmlns:xlink="http://www.w3.org/1999/xlink" xmlns:svgjs="http://svgjs.com/svgjs" version="1.1" width="512" height="512" x="0" y="0" viewBox="0 0 42.054 42.054" style="enable-background:new 0 0 512 512" xml:space="preserve" class=""><g>
<g xmlns="http://www.w3.org/2000/svg">
	<path d="M42.054,21.168c0,10.001-6.987,18.354-16.344,20.485V24.185h5.053v-5.833h-5.104V17.05c0-2.5,1.094-4.532,3.697-4.532   c1.043,0,1.877,0.157,2.555,0.365l0.311-6.094c-1.094-0.312-2.445-0.522-4.217-0.522c-2.291,0-5.053,0.68-7.031,2.554   c-2.293,2.084-3.23,5.469-3.23,8.541v0.989H14.41v5.833h3.333v17.729C7.694,40.334,0,31.661,0,21.168   C0,9.555,9.415,0.14,21.028,0.14C32.641,0.139,42.054,9.554,42.054,21.168z" fill="#ffffff" data-original="#000000" style="" class=""/>
</g>
<g xmlns="http://www.w3.org/2000/svg">
</g>
<g xmlns="http://www.w3.org/2000/svg">
</g>
<g xmlns="http://www.w3.org/2000/svg">
</g>
<g xmlns="http://www.w3.org/2000/svg">
</g>
<g xmlns="http://www.w3.org/2000/svg">
</g>
<g xmlns="http://www.w3.org/2000/svg">
</g>
<g xmlns="http://www.w3.org/2000/svg">
</g>
<g xmlns="http://www.w3.org/2000/svg">
</g>
<g xmlns="http://www.w3.org/2000/svg">
</g>
<g xmlns="http://www.w3.org/2000/svg">
</g>
<g xmlns="http://www.w3.org/2000/svg">
</g>
<g xmlns="http://www.w3.org/2000/svg">
</g>
<g xmlns="http://www.w3.org/2000/svg">
</g>
<g xmlns="http://www.w3.org/2000/svg">
</g>
<g xmlns="http://www.w3.org/2000/svg">
</g>
</g></svg>
