<?xml version="1.0"?>
<svg xmlns="http://www.w3.org/2000/svg" xmlns:xlink="http://www.w3.org/1999/xlink" xmlns:svgjs="http://svgjs.com/svgjs" version="1.1" width="512" height="512" x="0" y="0" viewBox="0 0 512 512" style="enable-background:new 0 0 512 512" xml:space="preserve" class=""><g>
<path xmlns="http://www.w3.org/2000/svg" style="" d="M511.189,259.954c1.649-3.989,0.731-8.579-2.325-11.627l-192-192  c-4.237-4.093-10.99-3.975-15.083,0.262c-3.992,4.134-3.992,10.687,0,14.82l173.803,173.803H10.667  C4.776,245.213,0,249.989,0,255.88c0,5.891,4.776,10.667,10.667,10.667h464.917L301.803,440.328  c-4.237,4.093-4.355,10.845-0.262,15.083c4.093,4.237,10.845,4.354,15.083,0.262c0.089-0.086,0.176-0.173,0.262-0.262l192-192  C509.872,262.42,510.655,261.246,511.189,259.954z" fill="#e8e8e8" data-original="#2196f3" class=""/>
<path xmlns="http://www.w3.org/2000/svg" d="M309.333,458.546c-5.891,0.011-10.675-4.757-10.686-10.648c-0.005-2.84,1.123-5.565,3.134-7.571L486.251,255.88  L301.781,71.432c-4.093-4.237-3.975-10.99,0.262-15.083c4.134-3.992,10.687-3.992,14.82,0l192,192  c4.164,4.165,4.164,10.917,0,15.083l-192,192C314.865,457.426,312.157,458.546,309.333,458.546z" fill="#e8e8e8" data-original="#000000" style="" class=""/>
<path xmlns="http://www.w3.org/2000/svg" d="M501.333,266.546H10.667C4.776,266.546,0,261.771,0,255.88c0-5.891,4.776-10.667,10.667-10.667h490.667  c5.891,0,10.667,4.776,10.667,10.667C512,261.771,507.224,266.546,501.333,266.546z" fill="#e8e8e8" data-original="#000000" style="" class=""/>
<g xmlns="http://www.w3.org/2000/svg">
</g>
<g xmlns="http://www.w3.org/2000/svg">
</g>
<g xmlns="http://www.w3.org/2000/svg">
</g>
<g xmlns="http://www.w3.org/2000/svg">
</g>
<g xmlns="http://www.w3.org/2000/svg">
</g>
<g xmlns="http://www.w3.org/2000/svg">
</g>
<g xmlns="http://www.w3.org/2000/svg">
</g>
<g xmlns="http://www.w3.org/2000/svg">
</g>
<g xmlns="http://www.w3.org/2000/svg">
</g>
<g xmlns="http://www.w3.org/2000/svg">
</g>
<g xmlns="http://www.w3.org/2000/svg">
</g>
<g xmlns="http://www.w3.org/2000/svg">
</g>
<g xmlns="http://www.w3.org/2000/svg">
</g>
<g xmlns="http://www.w3.org/2000/svg">
</g>
<g xmlns="http://www.w3.org/2000/svg">
</g>
</g></svg>
